<?xml version="1.0" encoding="UTF-8" standalone="no"?>
<svg
   fill="#1a1a1a"
   viewBox="0 0 54 54"
   width="96"
   height="96"
   version="1.1"
   id="svg4"
   sodipodi:docname="home.svg"
   inkscape:version="1.3 (0e150ed6c4, 2023-07-21)"
   xmlns:inkscape="http://www.inkscape.org/namespaces/inkscape"
   xmlns:sodipodi="http://sodipodi.sourceforge.net/DTD/sodipodi-0.dtd"
   xmlns="http://www.w3.org/2000/svg"
   xmlns:svg="http://www.w3.org/2000/svg">
  <defs
     id="defs8" />
  <sodipodi:namedview
     id="namedview6"
     pagecolor="#ffffff"
     bordercolor="#666666"
     borderopacity="1.0"
     inkscape:showpageshadow="2"
     inkscape:pageopacity="0.0"
     inkscape:pagecheckerboard="0"
     inkscape:deskcolor="#d1d1d1"
     showgrid="false"
     inkscape:zoom="3.61375"
     inkscape:cx="43.721896"
     inkscape:cy="38.049118"
     inkscape:window-width="1920"
     inkscape:window-height="1017"
     inkscape:window-x="1912"
     inkscape:window-y="-8"
     inkscape:window-maximized="1"
     inkscape:current-layer="svg4" />
  <path
     id="path5"
     style="fill:#000000;fill-opacity:1;stroke:none;stroke-width:1.125;stroke-dasharray:none;stroke-opacity:1"
     d="m 27.017578,4.1253662 c -0.221107,0 -0.442308,0.018748 -0.660278,0.05603 -0.21797,0.037282 -0.432549,0.093246 -0.6427,0.1680908 -0.210152,0.074845 -0.415385,0.1685607 -0.613038,0.28125 -0.197652,0.1126893 -0.38752,0.2435943 -0.567993,0.3944092 L 3.2563477,22.804321 c -0.1343493,0.112248 -0.2578616,0.234647 -0.3691407,0.364746 -0.1112791,0.1301 -0.210581,0.267875 -0.2977295,0.411988 -0.087148,0.144113 -0.1621638,0.295052 -0.2241211,0.449341 -0.061957,0.154288 -0.1115112,0.311786 -0.1472168,0.472412 -0.035706,0.160625 -0.057525,0.323569 -0.065918,0.486694 -0.00839,0.163124 -0.0024,0.327106 0.017578,0.488892 0.019979,0.161785 0.053859,0.321296 0.1032715,0.477905 0.049412,0.156608 0.1134532,0.310536 0.1933594,0.45813 0.07028,0.129718 0.1471348,0.250965 0.2296142,0.363647 0.082479,0.112682 0.1704696,0.216128 0.2636719,0.312012 0.093202,0.09588 0.1919848,0.183248 0.2944336,0.262573 0.1024488,0.07932 0.209483,0.15123 0.3197021,0.214234 0.1102192,0.063 0.224063,0.117874 0.3405762,0.164794 0.1165132,0.04692 0.2357247,0.08538 0.3570557,0.116456 0.121331,0.03108 0.2444681,0.05484 0.3691406,0.07031 0.1246725,0.01547 0.2502933,0.02297 0.3768311,0.02307 h 1.125 v 15.05896 c 0,0.23812 0.011777,0.47249 0.035156,0.704224 0.023379,0.231734 0.058744,0.460233 0.1043701,0.684448 0.045626,0.224216 0.1013512,0.444714 0.1680908,0.660278 0.06674,0.215565 0.1439926,0.425934 0.2307129,0.631714 0.08672,0.20578 0.1833724,0.407188 0.2889405,0.602051 0.105568,0.194863 0.2205892,0.384082 0.343872,0.566895 0.1232829,0.182812 0.2545445,0.358812 0.3944092,0.528442 0.1398647,0.16963 0.288534,0.332479 0.4438477,0.487793 0.1553136,0.155314 0.3170646,0.302884 0.4866943,0.442749 0.1696297,0.139865 0.3467283,0.272225 0.529541,0.395508 0.1828127,0.123283 0.3720317,0.237205 0.5668946,0.342773 0.1948628,0.105568 0.395172,0.20222 0.600953,0.288941 0.20578,0.08672 0.417248,0.163973 0.632812,0.230713 0.215564,0.06674 0.434964,0.123563 0.65918,0.169189 0.224215,0.04563 0.452714,0.07989 0.684448,0.103272 0.231734,0.02338 0.467203,0.03516 0.705322,0.03516 h 27.999756 c 0.23812,0 0.473588,-0.01178 0.705322,-0.03516 0.231734,-0.02338 0.460233,-0.05765 0.684449,-0.103272 0.224215,-0.04563 0.443615,-0.10245 0.659179,-0.169189 0.215565,-0.06674 0.427033,-0.143993 0.632813,-0.230713 0.20578,-0.08672 0.406089,-0.183373 0.600952,-0.288941 0.194863,-0.105568 0.384082,-0.21949 0.566894,-0.342773 0.182813,-0.123283 0.359912,-0.255643 0.529541,-0.395508 0.16963,-0.139865 0.331381,-0.287435 0.486695,-0.442749 0.155313,-0.155314 0.303983,-0.318163 0.443847,-0.487793 0.139865,-0.16963 0.271127,-0.34563 0.39441,-0.528442 0.123282,-0.182813 0.238304,-0.372032 0.343872,-0.566895 0.105568,-0.194863 0.20222,-0.396271 0.28894,-0.602051 0.08672,-0.20578 0.163973,-0.416149 0.230713,-0.631714 0.06674,-0.215564 0.122465,-0.436062 0.168091,-0.660278 0.04563,-0.224215 0.08099,-0.452714 0.10437,-0.684448 0.02338,-0.231734 0.03516,-0.466104 0.03516,-0.704224 V 27.953613 h 1.122803 c 0.211464,-1.02e-4 0.421688,-0.02313 0.627319,-0.06812 0.205631,-0.04498 0.406336,-0.112199 0.598755,-0.202148 0.192419,-0.08995 0.37639,-0.202279 0.548218,-0.337281 0.08591,-0.0675 0.168908,-0.140946 0.248291,-0.219726 0.07938,-0.07878 0.155488,-0.163714 0.227417,-0.253784 0.12188,-0.152594 0.224317,-0.314863 0.307617,-0.484497 0.0833,-0.169635 0.147544,-0.346328 0.193359,-0.527344 0.04582,-0.181017 0.07297,-0.365873 0.0824,-0.552613 0.0094,-0.186739 0.0017,-0.375696 -0.02417,-0.5625 -0.02587,-0.186803 -0.06957,-0.371404 -0.129639,-0.552612 -0.06007,-0.181208 -0.137539,-0.358489 -0.230713,-0.528442 -0.09317,-0.169953 -0.202208,-0.332556 -0.327392,-0.485596 -0.125184,-0.153039 -0.265776,-0.296901 -0.421875,-0.427368 L 47.8927,20.392822 V 9.6679688 c 0,-0.108131 -0.01054,-0.2128844 -0.03076,-0.314209 C 47.841717,9.2524352 47.811468,9.1541246 47.772949,9.0615234 47.734431,8.9689223 47.687215,8.8820093 47.632324,8.8000488 47.577433,8.7180883 47.514897,8.6420346 47.445557,8.5726318 47.376217,8.5032291 47.300004,8.4396934 47.21814,8.3847656 47.136275,8.3298378 47.04913,8.2826763 46.956665,8.2441406 46.8642,8.2056049 46.766669,8.1764764 46.665527,8.15625 46.564386,8.1360236 46.459212,8.1254883 46.351318,8.1254883 h -2.665283 c -0.10807,0 -0.214016,0.010523 -0.315307,0.030762 -0.101292,0.020239 -0.198548,0.049336 -0.291138,0.087891 -0.09259,0.038555 -0.180608,0.085677 -0.262573,0.140625 -0.08197,0.054948 -0.157999,0.1184483 -0.227417,0.1878662 -0.06942,0.069418 -0.13182,0.1454518 -0.186768,0.227417 -0.05495,0.081965 -0.10207,0.1699835 -0.140625,0.2625733 -0.03855,0.09259 -0.06875,0.1898462 -0.08899,0.2911377 -0.02024,0.1012914 -0.03076,0.2061387 -0.03076,0.314209 V 15.587402 L 29.500488,5.0251465 C 29.320016,4.8743316 29.129965,4.7434266 28.932495,4.6307373 28.735026,4.518048 28.529366,4.4243323 28.319458,4.3494873 28.10955,4.2746423 27.894545,4.2186784 27.676758,4.1813965 c -0.217787,-0.037282 -0.438073,-0.05603 -0.65918,-0.05603 z m 0,6.9620358 c 0.120675,0 0.241759,0.01107 0.36145,0.03186 0.119692,0.02079 0.238211,0.05204 0.35376,0.09338 0.115549,0.04134 0.227932,0.09216 0.336182,0.153809 0.108249,0.06165 0.212023,0.133619 0.309814,0.215332 l 13.763672,11.500488 v 19.417237 c 0,0.110586 -0.01099,0.219186 -0.03296,0.324096 -0.02197,0.104911 -0.05507,0.206316 -0.09668,0.303223 -0.04161,0.09691 -0.09268,0.189182 -0.151611,0.275757 -0.05893,0.08657 -0.124937,0.167783 -0.198852,0.241699 -0.07392,0.07392 -0.155125,0.141023 -0.2417,0.199951 -0.08657,0.05893 -0.17885,0.109998 -0.275757,0.151612 -0.09691,0.04161 -0.198312,0.07361 -0.303222,0.09558 -0.104911,0.02197 -0.21351,0.03406 -0.324097,0.03406 H 31.892212 V 31.000122 c 0,-0.124383 -0.02276,-0.241815 -0.06592,-0.347168 -0.04316,-0.105353 -0.106291,-0.198576 -0.18457,-0.276855 -0.07828,-0.07828 -0.172601,-0.141409 -0.277954,-0.184571 -0.105354,-0.04316 -0.221686,-0.06702 -0.34607,-0.06702 h -8.000244 c -0.124383,0 -0.240716,0.02386 -0.346069,0.06702 -0.105353,0.04316 -0.199675,0.106292 -0.277954,0.184571 -0.07828,0.07828 -0.141409,0.171502 -0.184571,0.276855 -0.04316,0.105353 -0.06592,0.222785 -0.06592,0.347168 v 13.125366 h -8.625366 c -0.110587,0 -0.219186,-0.01209 -0.324097,-0.03406 -0.10491,-0.02197 -0.206315,-0.05397 -0.303222,-0.09558 -0.09691,-0.04161 -0.189182,-0.09268 -0.275757,-0.151612 -0.08657,-0.05893 -0.167784,-0.126035 -0.241699,-0.199951 -0.07392,-0.07392 -0.139924,-0.155124 -0.198853,-0.241699 -0.05893,-0.08658 -0.109998,-0.17885 -0.151611,-0.275757 -0.04161,-0.09691 -0.07471,-0.198312 -0.09668,-0.303223 -0.02197,-0.10491 -0.03296,-0.21351 -0.03296,-0.324096 V 23.082275 l 13.76148,-11.500488 c 0.09779,-0.08171 0.201383,-0.153686 0.309814,-0.215332 0.108432,-0.06165 0.221487,-0.112469 0.337281,-0.153809 0.115793,-0.04134 0.234983,-0.07259 0.354858,-0.09338 0.119875,-0.02079 0.240773,-0.03186 0.36145,-0.03186 z" />
</svg>
