<?xml version="1.0" encoding="UTF-8" standalone="no"?>
<svg
   fill="#1a1a1a"
   viewBox="0 0 54 54"
   width="96"
   height="96"
   version="1.1"
   id="svg4"
   sodipodi:docname="home.svg"
   inkscape:version="1.3 (0e150ed6c4, 2023-07-21)"
   xmlns:inkscape="http://www.inkscape.org/namespaces/inkscape"
   xmlns:sodipodi="http://sodipodi.sourceforge.net/DTD/sodipodi-0.dtd"
   xmlns="http://www.w3.org/2000/svg"
   xmlns:svg="http://www.w3.org/2000/svg">
  <defs
     id="defs8" />
  <sodipodi:namedview
     id="namedview6"
     pagecolor="#ffffff"
     bordercolor="#666666"
     borderopacity="1.0"
     inkscape:showpageshadow="2"
     inkscape:pageopacity="0.0"
     inkscape:pagecheckerboard="0"
     inkscape:deskcolor="#d1d1d1"
     showgrid="false"
     inkscape:zoom="3.61375"
     inkscape:cx="43.721896"
     inkscape:cy="48.841231"
     inkscape:window-width="1920"
     inkscape:window-height="1017"
     inkscape:window-x="1912"
     inkscape:window-y="-8"
     inkscape:window-maximized="1"
     inkscape:current-layer="svg4" />
  <path
     d="m 27.016851,3 c -1.139,0 -2.277078,0.386609 -3.205078,1.162109 L 2.5344285,21.941406 c -1.465,1.224 -1.96564051,3.328813 -1.05664,5.007813 0.75877,1.400481 2.142951,2.116054 3.539062,2.117187 V 43 c 0,4.418 3.582,8 8.0000005,8 h 28 c 4.418,0 8,-3.582 8,-8 V 29.078125 c 1.17234,-5.66e-4 2.334392,-0.511455 3.126953,-1.503906 1.377,-1.724 0.985969,-4.270547 -0.707031,-5.685547 L 49.016851,19.867188 V 9.667969 C 49.016851,8.194969 47.822835,7 46.350835,7 H 43.68482 c -1.473,0 -2.667969,1.194969 -2.667969,2.667969 v 3.513672 L 30.221929,4.162109 C 29.293929,3.386609 28.155851,3 27.016851,3 Z m 0,9.212891 c 0.22775,0 0.455125,0.07742 0.640625,0.232421 l 13.359375,11.16211 V 42.5 c 0,0.276 -0.224,0.5 -0.5,0.5 h -7.5 V 31 c 0,-1.105 -0.895,-2 -2,-2 h -8 c -1.105,0 -2,0.895 -2,2 v 12 h -7.5 c -0.276,0 -0.5,-0.224 -0.5,-0.5 V 23.607422 l 13.359375,-11.16211 c 0.1855,-0.154999 0.412875,-0.232421 0.640625,-0.232421 z"
     id="path2"
     style="fill:#000000;fill-opacity:1;stroke:none" />
</svg>
